<svg width="48" height="28" viewBox="0 0 48 28" fill="none" xmlns="http://www.w3.org/2000/svg">
<circle cx="34" cy="14" r="14" fill="#8FDFDE"/>
<circle cx="14" cy="14" r="14" fill="#D1345B" fill-opacity="0.8"/>
<path d="M13.426 16.832H12.274V20H8.026V7.4H14.092C15.256 7.4 16.27 7.592 17.134 7.976C17.998 8.36 18.664 8.912 19.132 9.632C19.6 10.352 19.834 11.192 19.834 12.152C19.834 13.052 19.63 13.838 19.222 14.51C18.814 15.182 18.226 15.716 17.458 16.112L20.104 20H15.568L13.426 16.832ZM15.55 12.152C15.55 11.684 15.406 11.324 15.118 11.072C14.83 10.808 14.398 10.676 13.822 10.676H12.274V13.628H13.822C14.398 13.628 14.83 13.502 15.118 13.25C15.406 12.986 15.55 12.62 15.55 12.152ZM41.9401 7.4L37.9081 20H33.3541L31.3201 13.268L29.1781 20H24.6241L20.5921 7.4H24.9661L27.1621 14.564L29.4841 7.4H33.3901L35.5861 14.654L37.9081 7.4H41.9401Z" fill="#070707"/>
</svg>
